<?xml version="1.0" encoding="UTF-8"?>
<svg id="Layer_1" xmlns="http://www.w3.org/2000/svg" version="1.1" viewBox="0 0 1000 200">
  <defs>
    <style>
      .st0 {
        fill: #f5f1d8;
      }
    </style>
  </defs>
  <g id="workmark_x5F_colour">
    <g>
      <path class="st0" d="M71.27,100c0-24.45,18.72-42.12,43.87-42.12,13.34,0,24.8,4.8,32.41,13.69l-9.83,9.24c-5.97-6.43-13.34-9.59-21.88-9.59-16.96,0-29.25,11.93-29.25,28.78s12.29,28.78,29.25,28.78c8.54,0,15.91-3.16,21.88-9.71l9.83,9.36c-7.61,8.89-19.07,13.69-32.53,13.69-25.04,0-43.76-17.67-43.76-42.12Z"/>
      <polygon class="st0" points="229.1 59.05 214.12 59.05 177.27 140.95 192.94 140.95 221.49 74.26 250.16 140.95 266.07 140.95 229.1 59.05"/>
      <path class="st0" d="M358.49,140.95l-16.73-23.98c-1.05.12-2.11.12-3.16.12h-18.49v23.87h-15.21V59.05h33.7c21.53,0,34.87,11,34.87,29.13,0,12.4-6.32,21.53-17.43,25.86l18.84,26.91h-16.38ZM337.9,71.92h-17.78v32.64h17.78c13.34,0,20.24-6.08,20.24-16.38s-6.9-16.26-20.24-16.26Z"/>
      <path class="st0" d="M434.31,71.92h-27.14v-12.87h69.5v12.87h-27.14v69.03h-15.21v-69.03Z"/>
      <polygon class="st0" points="552.71 59.05 537.73 59.05 500.88 140.95 516.55 140.95 545.1 74.26 573.77 140.95 589.68 140.95 552.71 59.05"/>
      <path class="st0" d="M682.1,140.95l-16.73-23.98c-1.05.12-2.11.12-3.16.12h-18.49v23.87h-15.21V59.05h33.7c21.53,0,34.87,11,34.87,29.13,0,12.4-6.32,21.53-17.43,25.86l18.84,26.91h-16.38ZM661.51,71.92h-17.78v32.64h17.78c13.34,0,20.24-6.08,20.24-16.38s-6.9-16.26-20.24-16.26Z"/>
      <path class="st0" d="M736.62,100c0-24.45,18.72-42.12,43.87-42.12,13.34,0,24.8,4.8,32.41,13.69l-9.83,9.24c-5.97-6.43-13.34-9.59-21.88-9.59-16.96,0-29.25,11.93-29.25,28.78s12.29,28.78,29.25,28.78c8.54,0,15.91-3.16,21.88-9.71l9.83,9.36c-7.61,8.89-19.07,13.69-32.53,13.69-25.04,0-43.76-17.67-43.76-42.12Z"/>
      <path class="st0" d="M928.73,59.05v81.9h-15.21v-35.1h-42.35v35.1h-15.21V59.05h15.21v33.81h42.35v-33.81h15.21Z"/>
    </g>
  </g>
</svg>