<?xml version="1.0" encoding="UTF-8"?>
<svg id="Layer_1" xmlns="http://www.w3.org/2000/svg" version="1.1" viewBox="0 0 2000 400">
  <defs>
    <style>
      .st0 {
        fill: #1c1c1d;
      }
    </style>
  </defs>
  <g id="horizontal_x5F_black">
    <g id="card">
      <g>
        <g>
          <path class="st0" d="M217.52,277.21c-22.08,5.1-43.68,11.5-64.68,19.16-.43.15-.85.3-1.27.46l-63.28-156.07c-.78-1.9.22-4.07,2.17-4.72l77.17-25.9.39,1.29,49.5,165.78Z"/>
          <path class="st0" d="M89.01,138.23c.05-.13.2-.36.51-.47l78.49-26.33-.39-1.29-.38-1.29-78.58,26.37c-1.95.65-2.94,2.82-2.17,4.72l63.81,157.37c.42-.16.85-.32,1.27-.47.42-.16.84-.31,1.27-.46l-63.85-157.45c-.12-.31-.04-.57.03-.69Z"/>
          <path class="st0" d="M79.61,133.9c.98-2.12,2.74-3.68,4.93-4.42l80.75-27.1-1.67-5.62c-.08-.28-.16-.57-.23-.85l-81,27.18c-8.25,2.76-12.46,11.92-9.18,19.98l64.48,159.05c2.09-.82,4.18-1.64,6.28-2.45l-64.52-159.13c-.88-2.16-.82-4.52.15-6.63Z"/>
        </g>
        <g>
          <path class="st0" d="M608.77,140.75l-63.27,156.09c-.42-.16-.84-.32-1.27-.47-21-7.66-42.61-14.06-64.7-19.16l49.5-165.78.39-1.29,77.17,25.9c1.95.65,2.95,2.82,2.17,4.72Z"/>
          <path class="st0" d="M608.39,135.21l-78.58-26.37-.38,1.29-.39,1.29,78.5,26.33c.31.11.44.34.51.47.05.12.13.38.01.69l-63.83,157.45c.43.15.85.31,1.27.47.42.15.84.3,1.25.46l63.81-157.37c.77-1.9-.22-4.07-2.17-4.72Z"/>
          <path class="st0" d="M614.65,123.09l-80.98-27.18c-.08.28-.16.57-.24.85l-1.67,5.62,80.75,27.1c2.21.74,3.96,2.31,4.93,4.42.97,2.12,1.02,4.48.15,6.63l-64.52,159.13c2.1.81,4.19,1.63,6.28,2.45l64.48-159.05c3.28-8.06-.93-17.22-9.18-19.98Z"/>
        </g>
        <g>
          <path class="st0" d="M511.76,93.94l-53.39,178.79c-.44-.09-.89-.18-1.33-.26-15.71-2.98-31.64-5.3-47.74-6.96l12-195.13.08-1.38,87.76,20.44c2.01.46,3.2,2.52,2.62,4.49Z"/>
          <path class="st0" d="M510.86,88.47l-89.39-20.82-.08,1.36-.08,1.38,88.94,20.69c.32.08.49.3.55.42.08.12.18.36.08.69l-53.83,180.29c.44.08.89.16,1.33.26.44.08.89.16,1.33.26l53.75-180.03c.59-1.97-.61-4.03-2.6-4.49Z"/>
          <path class="st0" d="M515.92,75.8l-93.74-21.81c.04.71.03,1.44-.01,2.17l-.28,4.68,92.51,21.53c2.26.54,4.15,1.93,5.33,3.95,1.17,2.01,1.46,4.35.78,6.59l-54.17,181.4c2.21.46,4.42.93,6.62,1.42l54.01-180.89c2.49-8.34-2.56-17.05-11.04-19.04Z"/>
        </g>
        <g>
          <path class="st0" d="M287.73,265.52c-16.08,1.66-32,3.99-47.71,6.96-.44.08-.89.16-1.33.26l-53.39-178.79c-.58-1.97.61-4.03,2.62-4.49l87.74-20.42.08,1.36,12,195.13Z"/>
          <path class="st0" d="M186.27,91.5c.07-.12.23-.34.55-.42l88.91-20.69-.08-1.36-.08-1.36-89.35,20.8c-2.01.46-3.21,2.52-2.62,4.49l53.75,180.03c.44-.09.89-.18,1.33-.26.44-.09.89-.18,1.33-.26l-53.83-180.29c-.09-.32.01-.57.08-.69Z"/>
          <path class="st0" d="M177.33,86.31c1.17-2.02,3.06-3.41,5.34-3.95l92.47-21.53-.28-4.68c-.04-.73-.05-1.46-.01-2.17l-93.71,21.81c-8.48,1.98-13.54,10.69-11.04,19.04l54.01,180.89c2.2-.49,4.41-.96,6.62-1.42l-54.17-181.4c-.66-2.24-.39-4.58.78-6.59Z"/>
        </g>
        <g>
          <path class="st0" d="M400.43,58.32l-12.63,205.37c-.44-.04-.89-.07-1.35-.09-1.27-.08-2.52-.16-3.79-.23l-34.13-63.2-34.12,63.2c-1.28.07-2.55.15-3.83.23-.46.03-.9.05-1.35.09l-12.63-205.37c-.12-2.05,1.51-3.79,3.56-3.79h96.72c2.06,0,3.68,1.74,3.56,3.79Z"/>
          <path class="st0" d="M398.3,53.19h-99.57c-2.06,0-3.69,1.74-3.56,3.79l12.73,206.82c.44-.04.89-.07,1.33-.09.44-.04.89-.07,1.35-.09l-12.73-206.79c-.01-.32.15-.55.24-.65.09-.11.3-.28.63-.28h99.57c.34,0,.54.18.63.28.09.09.26.32.24.65l-12.73,206.79c.46.03.9.05,1.35.09.44.01.89.05,1.33.08l12.73-206.8c.13-2.05-1.5-3.79-3.56-3.79Z"/>
          <path class="st0" d="M400.38,39.71h-103.73c-8.71,0-15.6,7.35-15.07,16.03l12.86,209.14c2.24-.22,4.48-.4,6.73-.58l-12.86-208.96c-.13-2.33.66-4.54,2.25-6.24,1.6-1.7,3.76-2.64,6.09-2.64h103.73c2.33,0,4.49.94,6.09,2.64,1.59,1.7,2.39,3.91,2.25,6.24l-12.86,208.95c2.25.18,4.49.38,6.73.58l12.86-209.12c.54-8.68-6.36-16.03-15.07-16.03Z"/>
        </g>
      </g>
      <g>
        <path class="st0" d="M534.76,344.83c-51.65-19.76-108.32-31.57-167.87-33.58l-8.61,15.95c60.57,1.12,118.16,12.66,170.42,32.61.03.01.05.01.08.03,3.45,1.33,7.33-.34,8.72-3.76l3.55-8.78c-2.09-.85-4.18-1.66-6.28-2.47ZM162.3,344.83c-2.1.81-4.19,1.62-6.27,2.45l3.56,8.78c1.39,3.42,5.27,5.1,8.72,3.77.01-.01.04-.01.05-.03,52.27-19.95,109.86-31.49,170.43-32.61l-8.61-15.95c-59.55,2.01-116.24,13.82-167.88,33.58Z"/>
        <path class="st0" d="M549.48,308.54c-50.19-19.28-104.75-31.56-162.01-35.4l-15.58,28.86c58.97,2.49,115.12,14.42,166.41,34.09,2.1.81,4.19,1.63,6.28,2.47l11.16-27.56c-2.08-.85-4.17-1.67-6.27-2.47ZM147.57,308.54c-2.1.8-4.19,1.62-6.27,2.45l11.18,27.56c2.08-.84,4.17-1.64,6.27-2.45,51.31-19.67,107.45-31.6,166.43-34.09l-15.58-28.86c-57.27,3.84-111.81,16.12-162.02,35.4Z"/>
      </g>
      <polygon class="st0" points="376.97 272.7 348.53 325.38 320.09 272.7 348.53 220.03 376.97 272.7"/>
    </g>
    <g id="text">
      <g>
        <path class="st0" d="M815.49,307.94h-11.97v-4.34h28.88v4.34h-11.97v30.58h-4.94v-30.58Z"/>
        <path class="st0" d="M872.85,303.6v34.92h-4.99v-15.56h-20.05v15.56h-4.99v-34.92h4.99v15.02h20.05v-15.02h4.99Z"/>
        <path class="st0" d="M913.66,334.18v4.34h-25.34v-34.92h24.64v4.34h-19.65v10.73h17.51v4.24h-17.51v11.27h20.35Z"/>
        <path class="st0" d="M968.48,338.52l-7.53-10.73c-.7.05-1.45.1-2.2.1h-8.63v10.63h-4.99v-34.92h13.62c9.08,0,14.57,4.59,14.57,12.17,0,5.39-2.79,9.28-7.68,11.02l8.28,11.72h-5.44ZM968.33,315.77c0-4.99-3.34-7.83-9.73-7.83h-8.48v15.71h8.48c6.39,0,9.73-2.89,9.73-7.88Z"/>
        <path class="st0" d="M986.08,323.45v-19.85h4.99v19.65c0,7.73,3.54,11.22,9.83,11.22s9.88-3.49,9.88-11.22v-19.65h4.84v19.85c0,10.13-5.54,15.46-14.77,15.46s-14.77-5.34-14.77-15.46Z"/>
        <path class="st0" d="M1030.83,303.6h4.99v30.58h18.91v4.34h-23.89v-34.92Z"/>
        <path class="st0" d="M1090.78,334.18v4.34h-25.34v-34.92h24.64v4.34h-19.65v10.73h17.51v4.24h-17.51v11.27h20.35Z"/>
        <path class="st0" d="M1127.2,338.52l-7.53-10.73c-.7.05-1.45.1-2.2.1h-8.63v10.63h-4.99v-34.92h13.62c9.08,0,14.57,4.59,14.57,12.17,0,5.39-2.79,9.28-7.68,11.02l8.28,11.72h-5.44ZM1127.05,315.77c0-4.99-3.34-7.83-9.73-7.83h-8.48v15.71h8.48c6.39,0,9.73-2.89,9.73-7.88Z"/>
        <path class="st0" d="M1160.67,321.06c0-10.23,7.88-17.86,18.61-17.86s18.51,7.58,18.51,17.86-7.88,17.86-18.51,17.86-18.61-7.63-18.61-17.86ZM1192.79,321.06c0-7.73-5.79-13.42-13.52-13.42s-13.62,5.69-13.62,13.42,5.79,13.42,13.62,13.42,13.52-5.69,13.52-13.42Z"/>
        <path class="st0" d="M1215.39,307.94v12.17h17.51v4.29h-17.51v14.12h-4.99v-34.92h24.64v4.34h-19.65Z"/>
        <path class="st0" d="M1278.83,326.44v12.07h-4.94v-12.17l-13.87-22.75h5.34l11.17,18.41,11.22-18.41h4.94l-13.87,22.85Z"/>
        <path class="st0" d="M1298.39,321.06c0-10.23,7.88-17.86,18.61-17.86s18.51,7.58,18.51,17.86-7.88,17.86-18.51,17.86-18.61-7.63-18.61-17.86ZM1330.51,321.06c0-7.73-5.79-13.42-13.52-13.42s-13.62,5.69-13.62,13.42,5.79,13.42,13.62,13.42,13.52-5.69,13.52-13.42Z"/>
        <path class="st0" d="M1347.82,323.45v-19.85h4.99v19.65c0,7.73,3.54,11.22,9.83,11.22s9.88-3.49,9.88-11.22v-19.65h4.84v19.85c0,10.13-5.54,15.46-14.77,15.46s-14.77-5.34-14.77-15.46Z"/>
        <path class="st0" d="M1415.91,338.52l-7.53-10.73c-.7.05-1.45.1-2.2.1h-8.63v10.63h-4.99v-34.92h13.62c9.08,0,14.57,4.59,14.57,12.17,0,5.39-2.79,9.28-7.68,11.02l8.28,11.72h-5.44ZM1415.76,315.77c0-4.99-3.34-7.83-9.73-7.83h-8.48v15.71h8.48c6.39,0,9.73-2.89,9.73-7.88Z"/>
        <path class="st0" d="M1449.38,321.06c0-10.33,7.88-17.86,18.51-17.86,5.39,0,10.08,1.85,13.27,5.44l-3.24,3.14c-2.69-2.84-5.99-4.14-9.83-4.14-7.88,0-13.72,5.69-13.72,13.42s5.84,13.42,13.72,13.42c3.84,0,7.13-1.35,9.83-4.19l3.24,3.14c-3.19,3.59-7.88,5.49-13.32,5.49-10.58,0-18.46-7.53-18.46-17.86Z"/>
        <path class="st0" d="M1489.68,321.06c0-10.23,7.88-17.86,18.61-17.86s18.51,7.58,18.51,17.86-7.88,17.86-18.51,17.86-18.61-7.63-18.61-17.86ZM1521.81,321.06c0-7.73-5.79-13.42-13.52-13.42s-13.62,5.69-13.62,13.42,5.79,13.42,13.62,13.42,13.52-5.69,13.52-13.42Z"/>
        <path class="st0" d="M1539.41,303.6h4.99v30.58h18.91v4.34h-23.9v-34.92Z"/>
        <path class="st0" d="M1574.03,303.6h4.99v30.58h18.91v4.34h-23.9v-34.92Z"/>
        <path class="st0" d="M1633.99,334.18v4.34h-25.34v-34.92h24.64v4.34h-19.65v10.73h17.51v4.24h-17.51v11.27h20.35Z"/>
        <path class="st0" d="M1644.06,321.06c0-10.33,7.88-17.86,18.51-17.86,5.39,0,10.08,1.85,13.27,5.44l-3.24,3.14c-2.69-2.84-5.99-4.14-9.83-4.14-7.88,0-13.72,5.69-13.72,13.42s5.84,13.42,13.72,13.42c3.84,0,7.13-1.35,9.83-4.19l3.24,3.14c-3.19,3.59-7.88,5.49-13.32,5.49-10.58,0-18.46-7.53-18.46-17.86Z"/>
        <path class="st0" d="M1694.49,307.94h-11.97v-4.34h28.88v4.34h-11.97v30.58h-4.94v-30.58Z"/>
        <path class="st0" d="M1721.83,303.6h4.99v34.92h-4.99v-34.92Z"/>
        <path class="st0" d="M1739.43,321.06c0-10.23,7.88-17.86,18.61-17.86s18.51,7.58,18.51,17.86-7.88,17.86-18.51,17.86-18.61-7.63-18.61-17.86ZM1771.56,321.06c0-7.73-5.79-13.42-13.52-13.42s-13.62,5.69-13.62,13.42,5.79,13.42,13.62,13.42,13.52-5.69,13.52-13.42Z"/>
        <path class="st0" d="M1819.2,303.6v34.92h-4.09l-20.95-26.04v26.04h-4.99v-34.92h4.09l20.95,26.04v-26.04h4.99Z"/>
      </g>
      <g>
        <rect class="st0" x="699.86" y="320.58" width="87.27" height="2.39"/>
        <rect class="st0" x="1840.62" y="320.58" width="87.27" height="2.39"/>
      </g>
      <g>
        <path class="st0" d="M699.43,185.23c0-35.04,26.83-60.36,62.88-60.36,19.12,0,35.55,6.87,46.45,19.62l-14.08,13.25c-8.55-9.22-19.12-13.75-31.36-13.75-24.31,0-41.92,17.1-41.92,41.25s17.61,41.25,41.92,41.25c12.24,0,22.8-4.53,31.36-13.92l14.08,13.41c-10.9,12.74-27.33,19.62-46.61,19.62-35.88,0-62.71-25.32-62.71-60.36Z"/>
        <polygon class="st0" points="925.63 126.55 904.16 126.55 851.34 243.92 873.81 243.92 914.73 148.34 955.81 243.92 978.61 243.92 925.63 126.55"/>
        <path class="st0" d="M1111.07,243.92l-23.98-34.37c-1.51.17-3.02.17-4.53.17h-26.49v34.21h-21.8v-117.38h48.29c30.85,0,49.97,15.76,49.97,41.75,0,17.77-9.05,30.85-24.98,37.06l27,38.57h-23.48ZM1081.56,144.99h-25.49v46.78h25.49c19.12,0,29.01-8.72,29.01-23.48s-9.89-23.31-29.01-23.31Z"/>
        <path class="st0" d="M1219.72,144.99h-38.9v-18.44h99.6v18.44h-38.9v98.93h-21.8v-98.93Z"/>
        <polygon class="st0" points="1389.41 126.55 1367.95 126.55 1315.13 243.92 1337.6 243.92 1378.51 148.34 1419.59 243.92 1442.4 243.92 1389.41 126.55"/>
        <path class="st0" d="M1574.86,243.92l-23.98-34.37c-1.51.17-3.02.17-4.53.17h-26.49v34.21h-21.8v-117.38h48.29c30.85,0,49.97,15.76,49.97,41.75,0,17.77-9.05,30.85-24.98,37.06l27,38.57h-23.48ZM1545.35,144.99h-25.49v46.78h25.49c19.12,0,29.01-8.72,29.01-23.48s-9.89-23.31-29.01-23.31Z"/>
        <path class="st0" d="M1652.99,185.23c0-35.04,26.83-60.36,62.88-60.36,19.12,0,35.55,6.87,46.45,19.62l-14.08,13.25c-8.55-9.22-19.12-13.75-31.36-13.75-24.31,0-41.92,17.1-41.92,41.25s17.61,41.25,41.92,41.25c12.24,0,22.8-4.53,31.36-13.92l14.08,13.41c-10.9,12.74-27.33,19.62-46.61,19.62-35.88,0-62.71-25.32-62.71-60.36Z"/>
        <path class="st0" d="M1928.31,126.55v117.38h-21.8v-50.3h-60.7v50.3h-21.8v-117.38h21.8v48.46h60.7v-48.46h21.8Z"/>
      </g>
    </g>
  </g>
</svg>