<?xml version="1.0" encoding="UTF-8"?>
<svg id="Layer_1" xmlns="http://www.w3.org/2000/svg" xmlns:xlink="http://www.w3.org/1999/xlink" version="1.1" viewBox="0 0 1000 1000">
  <defs>
    <style>
      .st0 {
        fill: url(#linear-gradient2);
      }

      .st1 {
        fill: url(#linear-gradient1);
      }

      .st2 {
        fill: url(#linear-gradient9);
      }

      .st3 {
        fill: url(#linear-gradient3);
      }

      .st4 {
        fill: url(#linear-gradient6);
      }

      .st5 {
        fill: url(#linear-gradient8);
      }

      .st6 {
        fill: url(#linear-gradient7);
      }

      .st7 {
        fill: url(#linear-gradient5);
      }

      .st8 {
        fill: url(#linear-gradient4);
      }

      .st9 {
        fill: url(#linear-gradient18);
      }

      .st10 {
        fill: url(#linear-gradient13);
      }

      .st11 {
        fill: url(#linear-gradient12);
      }

      .st12 {
        fill: url(#linear-gradient15);
      }

      .st13 {
        fill: url(#linear-gradient16);
      }

      .st14 {
        fill: url(#linear-gradient11);
      }

      .st15 {
        fill: url(#linear-gradient10);
      }

      .st16 {
        fill: url(#linear-gradient17);
      }

      .st17 {
        fill: url(#linear-gradient14);
      }

      .st18 {
        fill: url(#linear-gradient19);
      }

      .st19 {
        fill: url(#linear-gradient);
      }
    </style>
    <linearGradient id="linear-gradient" x1="99.84" y1="398.86" x2="308.69" y2="607.7" gradientUnits="userSpaceOnUse">
      <stop offset="0" stop-color="#fcfcfc"/>
      <stop offset="1" stop-color="#c1c1c1"/>
    </linearGradient>
    <linearGradient id="linear-gradient1" x1="73.35" y1="446.07" x2="251.3" y2="525.35" gradientUnits="userSpaceOnUse">
      <stop offset="0" stop-color="#bfbfbf"/>
      <stop offset=".49" stop-color="#c3c3c3"/>
      <stop offset="1" stop-color="#848484"/>
    </linearGradient>
    <linearGradient id="linear-gradient2" x1="53.17" y1="436.47" x2="241.97" y2="520.58" xlink:href="#linear-gradient1"/>
    <linearGradient id="linear-gradient3" x1="900.18" y1="398.87" x2="691.33" y2="607.71" gradientUnits="userSpaceOnUse">
      <stop offset="0" stop-color="#252525"/>
      <stop offset="1" stop-color="#000"/>
    </linearGradient>
    <linearGradient id="linear-gradient4" x1="926.65" y1="446.07" x2="748.71" y2="525.34" xlink:href="#linear-gradient1"/>
    <linearGradient id="linear-gradient5" x1="946.83" y1="436.47" x2="758.03" y2="520.59" xlink:href="#linear-gradient1"/>
    <linearGradient id="linear-gradient6" x1="759.66" y1="337.05" x2="544.67" y2="552.04" gradientUnits="userSpaceOnUse">
      <stop offset="0" stop-color="#323232"/>
      <stop offset="1" stop-color="#000"/>
    </linearGradient>
    <linearGradient id="linear-gradient7" x1="781.89" y1="375.46" x2="594.47" y2="481.32" xlink:href="#linear-gradient1"/>
    <linearGradient id="linear-gradient8" x1="800.33" y1="362.69" x2="603.2" y2="474.03" xlink:href="#linear-gradient1"/>
    <linearGradient id="linear-gradient9" x1="240.34" y1="337.06" x2="455.31" y2="552.03" gradientUnits="userSpaceOnUse">
      <stop offset="0" stop-color="#2b2b2b"/>
      <stop offset="1" stop-color="#000"/>
    </linearGradient>
    <linearGradient id="linear-gradient10" x1="218.11" y1="375.48" x2="405.52" y2="481.34" xlink:href="#linear-gradient1"/>
    <linearGradient id="linear-gradient11" x1="199.66" y1="362.7" x2="396.8" y2="474.04" xlink:href="#linear-gradient1"/>
    <linearGradient id="linear-gradient12" x1="499.98" y1="273.94" x2="499.98" y2="598.99" gradientUnits="userSpaceOnUse">
      <stop offset="0" stop-color="#000"/>
      <stop offset="1" stop-color="#000"/>
    </linearGradient>
    <linearGradient id="linear-gradient13" x1="378.91" y1="316.77" x2="619.5" y2="537.71" xlink:href="#linear-gradient1"/>
    <linearGradient id="linear-gradient14" x1="364.81" y1="299.1" x2="634.03" y2="546.34" xlink:href="#linear-gradient1"/>
    <linearGradient id="linear-gradient15" x1="200.84" y1="711" x2="799.18" y2="711" gradientUnits="userSpaceOnUse">
      <stop offset=".06" stop-color="#bfbfbf"/>
      <stop offset=".21" stop-color="#777"/>
      <stop offset=".37" stop-color="#d3d3d3"/>
      <stop offset=".73" stop-color="silver"/>
      <stop offset="1" stop-color="#484848"/>
    </linearGradient>
    <linearGradient id="linear-gradient16" x1="177.96" y1="664.5" x2="822.04" y2="664.5" xlink:href="#linear-gradient15"/>
    <linearGradient id="linear-gradient17" x1="2999.49" y1="235.73" x2="2883.72" y2="235.73" gradientTransform="translate(-1746.7119 2526.3285) rotate(-45)" gradientUnits="userSpaceOnUse">
      <stop offset="0" stop-color="#bfbfbf"/>
      <stop offset="1" stop-color="#848484"/>
    </linearGradient>
    <linearGradient id="linear-gradient18" x1="2972.86" y1="264.67" x2="2883.72" y2="264.67" gradientTransform="translate(-1746.7119 2526.3285) rotate(-45)" gradientUnits="userSpaceOnUse">
      <stop offset="0" stop-color="#c3c3c3"/>
      <stop offset=".69" stop-color="#535353"/>
    </linearGradient>
    <linearGradient id="linear-gradient19" x1="2999.49" y1="206.79" x2="2910.35" y2="206.79" gradientTransform="translate(-1746.7119 2526.3285) rotate(-45)" gradientUnits="userSpaceOnUse">
      <stop offset="0" stop-color="#e7e7e7"/>
      <stop offset="1" stop-color="#a4a4a4"/>
    </linearGradient>
  </defs>
  <g id="icon_x5F_mono">
    <g>
      <g>
        <path class="st19" d="M296.4,619.99c-34.32,7.92-67.88,17.87-100.52,29.77-.67.23-1.32.46-1.97.71l-98.34-242.55c-1.22-2.95.34-6.33,3.37-7.33l119.92-40.25.61,2.01,76.93,257.63Z"/>
        <path class="st1" d="M96.69,404c.08-.21.31-.57.8-.73l121.98-40.92-.61-2.01-.59-2.01-122.12,40.98c-3.04,1.01-4.57,4.38-3.37,7.33l99.16,244.56c.65-.25,1.32-.5,1.97-.73.65-.25,1.3-.48,1.97-.71l-99.22-244.69c-.19-.48-.06-.88.04-1.07Z"/>
        <path class="st0" d="M82.09,397.28c1.53-3.29,4.25-5.72,7.67-6.87l125.5-42.11-2.6-8.74c-.13-.44-.25-.88-.36-1.32l-125.87,42.24c-12.82,4.29-19.36,18.52-14.27,31.05l100.21,247.18c3.25-1.28,6.49-2.56,9.76-3.81l-100.27-247.31c-1.36-3.35-1.28-7.02.23-10.31Z"/>
      </g>
      <g>
        <path class="st3" d="M904.44,407.92l-98.32,242.57c-.65-.25-1.3-.5-1.97-.73-32.64-11.9-66.23-21.85-100.54-29.77l76.93-257.63.61-2.01,119.92,40.25c3.04,1.01,4.59,4.38,3.37,7.33Z"/>
        <path class="st8" d="M903.85,399.31l-122.12-40.98-.59,2.01-.61,2.01,122,40.92c.48.17.69.52.8.73.08.19.21.59.02,1.07l-99.2,244.69c.67.23,1.32.48,1.97.73.65.23,1.3.46,1.95.71l99.16-244.56c1.19-2.95-.34-6.33-3.37-7.33Z"/>
        <path class="st7" d="M913.57,380.47l-125.85-42.24c-.13.44-.25.88-.38,1.32l-2.6,8.74,125.5,42.11c3.44,1.15,6.16,3.58,7.67,6.87,1.51,3.29,1.59,6.96.23,10.31l-100.27,247.31c3.27,1.26,6.52,2.54,9.76,3.81l100.21-247.18c5.09-12.53-1.45-26.75-14.27-31.05Z"/>
      </g>
      <g>
        <path class="st4" d="M753.68,335.18l-82.97,277.85c-.69-.15-1.38-.27-2.07-.4-24.41-4.63-49.17-8.23-74.19-10.81l18.65-303.24.13-2.14,136.39,31.76c3.12.71,4.97,3.92,4.06,6.98Z"/>
        <path class="st6" d="M752.27,326.67l-138.93-32.35-.13,2.12-.13,2.14,138.21,32.16c.5.13.75.46.86.65.13.19.27.57.13,1.07l-83.66,280.18c.69.13,1.38.25,2.07.4.69.13,1.38.25,2.07.4l83.53-279.78c.92-3.06-.94-6.26-4.04-6.98Z"/>
        <path class="st5" d="M760.15,306.98l-145.67-33.9c.06,1.11.04,2.24-.02,3.37l-.44,7.27,143.77,33.46c3.52.84,6.45,3,8.28,6.14,1.82,3.12,2.26,6.77,1.22,10.24l-84.18,281.92c3.44.71,6.87,1.45,10.29,2.2l83.93-281.12c3.88-12.97-3.98-26.5-17.16-29.58Z"/>
      </g>
      <g>
        <path class="st2" d="M405.52,601.82c-24.99,2.58-49.74,6.2-74.15,10.81-.69.13-1.38.25-2.07.4l-82.97-277.85c-.9-3.06.94-6.26,4.06-6.98l136.35-31.74.13,2.12,18.65,303.24Z"/>
        <path class="st15" d="M247.83,331.39c.1-.19.36-.52.86-.65l138.17-32.16-.13-2.12-.13-2.12-138.86,32.33c-3.12.71-4.99,3.92-4.06,6.98l83.53,279.78c.69-.15,1.38-.27,2.07-.4.69-.15,1.38-.27,2.07-.4l-83.66-280.18c-.15-.5.02-.88.13-1.07Z"/>
        <path class="st14" d="M233.94,323.32c1.82-3.14,4.76-5.3,8.3-6.14l143.7-33.46-.44-7.27c-.06-1.13-.08-2.26-.02-3.37l-145.63,33.9c-13.18,3.08-21.03,16.61-17.16,29.58l83.93,281.12c3.42-.75,6.85-1.49,10.29-2.2l-84.18-281.92c-1.03-3.48-.61-7.12,1.22-10.24Z"/>
      </g>
      <g>
        <path class="st11" d="M580.66,279.83l-19.63,319.17c-.69-.06-1.38-.1-2.1-.15-1.97-.13-3.92-.25-5.89-.36l-53.05-98.22-53.03,98.22c-1.99.1-3.96.23-5.95.36-.71.04-1.4.08-2.1.15l-19.63-319.17c-.19-3.18,2.35-5.89,5.53-5.89h150.3c3.21,0,5.72,2.7,5.53,5.89Z"/>
        <path class="st10" d="M577.35,271.84h-154.74c-3.21,0-5.74,2.7-5.53,5.89l19.78,321.41c.69-.06,1.38-.1,2.07-.15.69-.06,1.38-.1,2.1-.15l-19.78-321.37c-.02-.5.23-.86.38-1.01.15-.17.46-.44.98-.44h154.74c.52,0,.84.27.98.44.15.15.4.5.38,1.01l-19.78,321.37c.71.04,1.4.08,2.1.15.69.02,1.38.08,2.07.13l19.78-321.39c.21-3.18-2.33-5.89-5.53-5.89Z"/>
        <path class="st17" d="M580.58,250.89h-161.2c-13.53,0-24.24,11.42-23.42,24.91l19.99,325.01c3.48-.34,6.96-.63,10.45-.9l-19.99-324.74c-.21-3.62,1.03-7.06,3.5-9.7,2.49-2.64,5.85-4.11,9.47-4.11h161.2c3.62,0,6.98,1.47,9.47,4.11,2.47,2.64,3.71,6.08,3.5,9.7l-19.99,324.72c3.5.27,6.98.59,10.45.9l19.99-324.99c.84-13.49-9.89-24.91-23.42-24.91Z"/>
      </g>
    </g>
    <g>
      <path class="st12" d="M789.42,725.08c-80.26-30.71-168.34-49.07-260.88-52.19l-13.39,24.79c94.13,1.74,183.64,19.67,264.84,50.68.04.02.08.02.13.04,5.36,2.07,11.4-.52,13.56-5.85l5.51-13.64c-3.25-1.32-6.49-2.58-9.76-3.83ZM210.58,725.08c-3.27,1.26-6.52,2.51-9.74,3.81l5.53,13.64c2.16,5.32,8.19,7.92,13.56,5.87.02-.02.06-.02.08-.04,81.23-31.01,170.73-48.94,264.86-50.68l-13.39-24.79c-92.54,3.12-180.64,21.47-260.9,52.19Z"/>
      <path class="st13" d="M812.3,668.68c-78-29.96-162.79-49.05-251.77-55.02l-24.22,44.86c91.64,3.88,178.9,22.42,258.62,52.98,3.27,1.26,6.52,2.54,9.76,3.83l17.35-42.82c-3.23-1.32-6.47-2.6-9.74-3.83ZM187.7,668.68c-3.27,1.24-6.52,2.51-9.74,3.81l17.37,42.82c3.23-1.3,6.47-2.56,9.74-3.81,79.74-30.57,166.98-49.11,258.64-52.98l-24.22-44.86c-89,5.97-173.77,25.06-251.79,55.02Z"/>
    </g>
    <polygon class="st16" points="544.21 612.99 500.01 694.84 455.8 612.99 500.01 531.13 544.21 612.99"/>
    <polygon class="st9" points="544.21 612.99 500.01 694.84 500.01 612.99 544.21 612.99"/>
    <polygon class="st18" points="500.01 612.99 455.8 612.99 500.01 531.13 500.01 612.99"/>
  </g>
</svg>