<?xml version="1.0" encoding="UTF-8"?>
<svg id="Layer_1" xmlns="http://www.w3.org/2000/svg" version="1.1" viewBox="0 0 1000 1000">
  <defs>
    <style>
      .st0 {
        fill: #fff;
      }
    </style>
  </defs>
  <g id="stacked_x5F_white">
    <g id="card">
      <g>
        <g>
          <path class="st0" d="M296.4,512.34c-34.32,7.92-67.88,17.87-100.52,29.77-.67.23-1.32.46-1.97.71l-98.34-242.55c-1.22-2.95.34-6.33,3.37-7.33l119.92-40.25.61,2.01,76.93,257.63Z"/>
          <path class="st0" d="M96.69,296.36c.08-.21.31-.57.8-.73l121.98-40.92-.61-2.01-.59-2.01-122.12,40.98c-3.04,1.01-4.57,4.38-3.37,7.33l99.16,244.56c.65-.25,1.32-.5,1.97-.73.65-.25,1.3-.48,1.97-.71l-99.22-244.69c-.19-.48-.06-.88.04-1.07Z"/>
          <path class="st0" d="M82.09,289.63c1.53-3.29,4.25-5.72,7.67-6.87l125.5-42.11-2.6-8.74c-.13-.44-.25-.88-.36-1.32l-125.87,42.24c-12.82,4.29-19.36,18.52-14.27,31.05l100.21,247.18c3.25-1.28,6.49-2.56,9.76-3.81l-100.27-247.31c-1.36-3.35-1.28-7.02.23-10.31Z"/>
        </g>
        <g>
          <path class="st0" d="M904.44,300.27l-98.32,242.57c-.65-.25-1.3-.5-1.97-.73-32.64-11.9-66.23-21.85-100.54-29.77l76.93-257.63.61-2.01,119.92,40.25c3.04,1.01,4.59,4.38,3.37,7.33Z"/>
          <path class="st0" d="M903.85,291.66l-122.12-40.98-.59,2.01-.61,2.01,122,40.92c.48.17.69.52.8.73.08.19.21.59.02,1.07l-99.2,244.69c.67.23,1.32.48,1.97.73.65.23,1.3.46,1.95.71l99.16-244.56c1.19-2.95-.34-6.33-3.37-7.33Z"/>
          <path class="st0" d="M913.57,272.83l-125.85-42.24c-.13.44-.25.88-.38,1.32l-2.6,8.74,125.5,42.11c3.44,1.15,6.16,3.58,7.67,6.87,1.51,3.29,1.59,6.96.23,10.31l-100.27,247.31c3.27,1.26,6.52,2.54,9.76,3.81l100.21-247.18c5.09-12.53-1.45-26.75-14.27-31.05Z"/>
        </g>
        <g>
          <path class="st0" d="M753.68,227.53l-82.97,277.85c-.69-.15-1.38-.27-2.07-.4-24.41-4.63-49.17-8.23-74.19-10.81l18.65-303.24.13-2.14,136.39,31.76c3.12.71,4.97,3.92,4.06,6.98Z"/>
          <path class="st0" d="M752.27,219.03l-138.93-32.35-.13,2.12-.13,2.14,138.21,32.16c.5.13.75.46.86.65.13.19.27.57.13,1.07l-83.66,280.18c.69.13,1.38.25,2.07.4.69.13,1.38.25,2.07.4l83.53-279.78c.92-3.06-.94-6.26-4.04-6.98Z"/>
          <path class="st0" d="M760.15,199.33l-145.67-33.9c.06,1.11.04,2.24-.02,3.37l-.44,7.27,143.77,33.46c3.52.84,6.45,3,8.28,6.14,1.82,3.12,2.26,6.77,1.22,10.24l-84.18,281.92c3.44.71,6.87,1.45,10.29,2.2l83.93-281.12c3.88-12.97-3.98-26.5-17.16-29.58Z"/>
        </g>
        <g>
          <path class="st0" d="M405.52,494.17c-24.99,2.58-49.74,6.2-74.15,10.81-.69.13-1.38.25-2.07.4l-82.97-277.85c-.9-3.06.94-6.26,4.06-6.98l136.35-31.74.13,2.12,18.65,303.24Z"/>
          <path class="st0" d="M247.83,223.74c.1-.19.36-.52.86-.65l138.17-32.16-.13-2.12-.13-2.12-138.86,32.33c-3.12.71-4.99,3.92-4.06,6.98l83.53,279.78c.69-.15,1.38-.27,2.07-.4.69-.15,1.38-.27,2.07-.4l-83.66-280.18c-.15-.5.02-.88.13-1.07Z"/>
          <path class="st0" d="M233.94,215.67c1.82-3.14,4.76-5.3,8.3-6.14l143.7-33.46-.44-7.27c-.06-1.13-.08-2.26-.02-3.37l-145.63,33.9c-13.18,3.08-21.03,16.61-17.16,29.58l83.93,281.12c3.42-.75,6.85-1.49,10.29-2.2l-84.18-281.92c-1.03-3.48-.61-7.12,1.22-10.24Z"/>
        </g>
        <g>
          <path class="st0" d="M580.66,172.18l-19.63,319.17c-.69-.06-1.38-.1-2.1-.15-1.97-.13-3.92-.25-5.89-.36l-53.05-98.22-53.03,98.22c-1.99.1-3.96.23-5.95.36-.71.04-1.4.08-2.1.15l-19.63-319.17c-.19-3.18,2.35-5.89,5.53-5.89h150.3c3.21,0,5.72,2.7,5.53,5.89Z"/>
          <path class="st0" d="M577.35,164.2h-154.74c-3.21,0-5.74,2.7-5.53,5.89l19.78,321.41c.69-.06,1.38-.1,2.07-.15.69-.06,1.38-.1,2.1-.15l-19.78-321.37c-.02-.5.23-.86.38-1.01.15-.17.46-.44.98-.44h154.74c.52,0,.84.27.98.44.15.15.4.5.38,1.01l-19.78,321.37c.71.04,1.4.08,2.1.15.69.02,1.38.08,2.07.13l19.78-321.39c.21-3.18-2.33-5.89-5.53-5.89Z"/>
          <path class="st0" d="M580.58,143.25h-161.2c-13.53,0-24.24,11.42-23.42,24.91l19.99,325.01c3.48-.34,6.96-.63,10.45-.9l-19.99-324.74c-.21-3.62,1.03-7.06,3.5-9.7,2.49-2.64,5.85-4.11,9.47-4.11h161.2c3.62,0,6.98,1.47,9.47,4.11,2.47,2.64,3.71,6.08,3.5,9.7l-19.99,324.72c3.5.27,6.98.59,10.45.9l19.99-324.99c.84-13.49-9.89-24.91-23.42-24.91Z"/>
        </g>
      </g>
      <g>
        <path class="st0" d="M789.42,617.43c-80.26-30.71-168.34-49.07-260.88-52.19l-13.39,24.79c94.13,1.74,183.64,19.67,264.84,50.68.04.02.08.02.13.04,5.36,2.07,11.4-.52,13.56-5.85l5.51-13.64c-3.25-1.32-6.49-2.58-9.76-3.83ZM210.58,617.43c-3.27,1.26-6.52,2.51-9.74,3.81l5.53,13.64c2.16,5.32,8.19,7.92,13.56,5.87.02-.02.06-.02.08-.04,81.23-31.01,170.73-48.94,264.86-50.68l-13.39-24.79c-92.54,3.12-180.64,21.47-260.9,52.19Z"/>
        <path class="st0" d="M812.3,561.03c-78-29.96-162.79-49.05-251.77-55.02l-24.22,44.86c91.64,3.88,178.9,22.42,258.62,52.98,3.27,1.26,6.52,2.54,9.76,3.83l17.35-42.82c-3.23-1.32-6.47-2.6-9.74-3.83ZM187.7,561.03c-3.27,1.24-6.52,2.51-9.74,3.81l17.37,42.82c3.23-1.3,6.47-2.56,9.74-3.81,79.74-30.57,166.98-49.11,258.64-52.98l-24.22-44.86c-89,5.97-173.77,25.06-251.79,55.02Z"/>
      </g>
      <polygon class="st0" points="544.21 505.34 500.01 587.2 455.8 505.34 500.01 423.48 544.21 505.34"/>
    </g>
    <g id="text">
      <g>
        <path class="st0" d="M153.09,837.19h-8.35v-3.03h20.15v3.03h-8.35v21.34h-3.45v-21.34Z"/>
        <path class="st0" d="M193.12,834.16v24.37h-3.48v-10.86h-13.99v10.86h-3.48v-24.37h3.48v10.48h13.99v-10.48h3.48Z"/>
        <path class="st0" d="M221.59,855.5v3.03h-17.68v-24.37h17.19v3.03h-13.71v7.48h12.22v2.96h-12.22v7.87h14.2Z"/>
        <path class="st0" d="M259.84,858.52l-5.26-7.48c-.49.03-1.01.07-1.53.07h-6.02v7.41h-3.48v-24.37h9.5c6.33,0,10.16,3.2,10.16,8.49,0,3.76-1.95,6.47-5.36,7.69l5.78,8.18h-3.79ZM259.73,842.65c0-3.48-2.33-5.46-6.79-5.46h-5.92v10.96h5.92c4.46,0,6.79-2.02,6.79-5.5Z"/>
        <path class="st0" d="M272.12,848.01v-13.85h3.48v13.71c0,5.4,2.47,7.83,6.86,7.83s6.89-2.44,6.89-7.83v-13.71h3.38v13.85c0,7.07-3.86,10.79-10.3,10.79s-10.3-3.72-10.3-10.79Z"/>
        <path class="st0" d="M303.34,834.16h3.48v21.34h13.19v3.03h-16.67v-24.37Z"/>
        <path class="st0" d="M345.18,855.5v3.03h-17.68v-24.37h17.19v3.03h-13.71v7.48h12.22v2.96h-12.22v7.87h14.2Z"/>
        <path class="st0" d="M370.59,858.52l-5.26-7.48c-.49.03-1.01.07-1.53.07h-6.02v7.41h-3.48v-24.37h9.5c6.34,0,10.16,3.2,10.16,8.49,0,3.76-1.95,6.47-5.36,7.69l5.78,8.18h-3.79ZM370.48,842.65c0-3.48-2.33-5.46-6.79-5.46h-5.92v10.96h5.92c4.46,0,6.79-2.02,6.79-5.5Z"/>
        <path class="st0" d="M393.94,846.34c0-7.14,5.5-12.46,12.98-12.46s12.91,5.29,12.91,12.46-5.5,12.46-12.91,12.46-12.98-5.33-12.98-12.46ZM416.36,846.34c0-5.4-4.04-9.36-9.43-9.36s-9.5,3.97-9.5,9.36,4.04,9.36,9.5,9.36,9.43-3.97,9.43-9.36Z"/>
        <path class="st0" d="M432.12,837.19v8.49h12.22v2.99h-12.22v9.85h-3.48v-24.37h17.19v3.03h-13.71Z"/>
        <path class="st0" d="M476.39,850.1v8.42h-3.45v-8.49l-9.68-15.87h3.72l7.8,12.84,7.83-12.84h3.45l-9.68,15.94Z"/>
        <path class="st0" d="M490.04,846.34c0-7.14,5.5-12.46,12.98-12.46s12.91,5.29,12.91,12.46-5.5,12.46-12.91,12.46-12.98-5.33-12.98-12.46ZM512.45,846.34c0-5.4-4.04-9.36-9.43-9.36s-9.5,3.97-9.5,9.36,4.04,9.36,9.5,9.36,9.43-3.97,9.43-9.36Z"/>
        <path class="st0" d="M524.53,848.01v-13.85h3.48v13.71c0,5.4,2.47,7.83,6.86,7.83s6.89-2.44,6.89-7.83v-13.71h3.38v13.85c0,7.07-3.86,10.79-10.3,10.79s-10.3-3.72-10.3-10.79Z"/>
        <path class="st0" d="M572.04,858.52l-5.26-7.48c-.49.03-1.01.07-1.53.07h-6.02v7.41h-3.48v-24.37h9.5c6.33,0,10.16,3.2,10.16,8.49,0,3.76-1.95,6.47-5.36,7.69l5.78,8.18h-3.79ZM571.93,842.65c0-3.48-2.33-5.46-6.79-5.46h-5.92v10.96h5.92c4.46,0,6.79-2.02,6.79-5.5Z"/>
        <path class="st0" d="M595.39,846.34c0-7.21,5.5-12.46,12.91-12.46,3.76,0,7.03,1.29,9.26,3.79l-2.26,2.19c-1.88-1.98-4.18-2.89-6.86-2.89-5.5,0-9.57,3.97-9.57,9.36s4.07,9.36,9.57,9.36c2.68,0,4.98-.94,6.86-2.92l2.26,2.19c-2.23,2.51-5.5,3.83-9.29,3.83-7.38,0-12.88-5.26-12.88-12.46Z"/>
        <path class="st0" d="M623.51,846.34c0-7.14,5.5-12.46,12.98-12.46s12.91,5.29,12.91,12.46-5.5,12.46-12.91,12.46-12.98-5.33-12.98-12.46ZM645.93,846.34c0-5.4-4.04-9.36-9.43-9.36s-9.5,3.97-9.5,9.36,4.04,9.36,9.5,9.36,9.43-3.97,9.43-9.36Z"/>
        <path class="st0" d="M658.21,834.16h3.48v21.34h13.19v3.03h-16.67v-24.37Z"/>
        <path class="st0" d="M682.37,834.16h3.48v21.34h13.19v3.03h-16.67v-24.37Z"/>
        <path class="st0" d="M724.2,855.5v3.03h-17.68v-24.37h17.19v3.03h-13.71v7.48h12.22v2.96h-12.22v7.87h14.2Z"/>
        <path class="st0" d="M731.23,846.34c0-7.21,5.5-12.46,12.91-12.46,3.76,0,7.03,1.29,9.26,3.79l-2.26,2.19c-1.88-1.98-4.18-2.89-6.86-2.89-5.5,0-9.57,3.97-9.57,9.36s4.07,9.36,9.57,9.36c2.68,0,4.98-.94,6.86-2.92l2.26,2.19c-2.23,2.51-5.5,3.83-9.29,3.83-7.38,0-12.88-5.26-12.88-12.46Z"/>
        <path class="st0" d="M766.42,837.19h-8.35v-3.03h20.15v3.03h-8.35v21.34h-3.45v-21.34Z"/>
        <path class="st0" d="M785.49,834.16h3.48v24.37h-3.48v-24.37Z"/>
        <path class="st0" d="M797.78,846.34c0-7.14,5.5-12.46,12.98-12.46s12.91,5.29,12.91,12.46-5.5,12.46-12.91,12.46-12.98-5.33-12.98-12.46ZM820.2,846.34c0-5.4-4.04-9.36-9.43-9.36s-9.5,3.97-9.5,9.36,4.04,9.36,9.5,9.36,9.43-3.97,9.43-9.36Z"/>
        <path class="st0" d="M853.44,834.16v24.37h-2.85l-14.62-18.17v18.17h-3.48v-24.37h2.85l14.62,18.17v-18.17h3.48Z"/>
      </g>
      <g>
        <rect class="st0" x="72.41" y="846.01" width="60.89" height="1.67"/>
        <rect class="st0" x="868.38" y="846.01" width="60.89" height="1.67"/>
      </g>
      <g>
        <path class="st0" d="M72.11,751.57c0-24.45,18.72-42.12,43.87-42.12,13.34,0,24.8,4.8,32.41,13.69l-9.83,9.24c-5.97-6.43-13.34-9.59-21.88-9.59-16.96,0-29.25,11.93-29.25,28.78s12.29,28.78,29.25,28.78c8.54,0,15.91-3.16,21.88-9.71l9.83,9.36c-7.61,8.89-19.07,13.69-32.53,13.69-25.04,0-43.76-17.67-43.76-42.12Z"/>
        <polygon class="st0" points="229.94 710.62 214.96 710.62 178.11 792.52 193.78 792.52 222.33 725.83 251 792.52 266.91 792.52 229.94 710.62"/>
        <path class="st0" d="M359.34,792.52l-16.73-23.98c-1.05.12-2.11.12-3.16.12h-18.49v23.87h-15.21v-81.9h33.7c21.53,0,34.87,11,34.87,29.13,0,12.4-6.32,21.53-17.43,25.86l18.84,26.91h-16.38ZM338.74,723.49h-17.78v32.64h17.78c13.34,0,20.24-6.08,20.24-16.38s-6.9-16.26-20.24-16.26Z"/>
        <path class="st0" d="M435.15,723.49h-27.14v-12.87h69.5v12.87h-27.14v69.03h-15.21v-69.03Z"/>
        <polygon class="st0" points="553.55 710.62 538.57 710.62 501.72 792.52 517.39 792.52 545.94 725.83 574.61 792.52 590.52 792.52 553.55 710.62"/>
        <path class="st0" d="M682.95,792.52l-16.73-23.98c-1.05.12-2.11.12-3.16.12h-18.49v23.87h-15.21v-81.9h33.7c21.53,0,34.87,11,34.87,29.13,0,12.4-6.32,21.53-17.43,25.86l18.84,26.91h-16.38ZM662.35,723.49h-17.78v32.64h17.78c13.34,0,20.24-6.08,20.24-16.38s-6.9-16.26-20.24-16.26Z"/>
        <path class="st0" d="M737.46,751.57c0-24.45,18.72-42.12,43.87-42.12,13.34,0,24.8,4.8,32.41,13.69l-9.83,9.24c-5.97-6.43-13.34-9.59-21.88-9.59-16.96,0-29.25,11.93-29.25,28.78s12.29,28.78,29.25,28.78c8.54,0,15.91-3.16,21.88-9.71l9.83,9.36c-7.61,8.89-19.07,13.69-32.53,13.69-25.04,0-43.76-17.67-43.76-42.12Z"/>
        <path class="st0" d="M929.57,710.62v81.9h-15.21v-35.1h-42.35v35.1h-15.21v-81.9h15.21v33.81h42.35v-33.81h15.21Z"/>
      </g>
    </g>
  </g>
</svg>